# xmcd
# 
# Track frame offsets:
#     150
#     22387
#     44890
#     69067
#     93227
#     119357
#     136667
#     159517
#     177977
#     204195
#     217615
#     246360
#     267275
#     286807
# 
# Disc length: 4080
# 
# Revision: 4
# Processed by: cddbd v1.5.2PL0 Copyright (c) Steve Scherf et al.
# Submitted via: fre:ac v1.0.31
# 
DISCID=c30fee0e
DTITLE=オフコース - Singles DISC 3
DYEAR=1998
DGENRE=J/Pop
TTITLE0=生まれ来る子供たちのために
TTITLE1=この海に誓って
TTITLE2=Yes-No
TTITLE3=愛の終わるとき
TTITLE4=時に愛は
TTITLE5=僕等の時代
TTITLE6=I LOVE YOU
TTITLE7=夜はふたりで
TTITLE8=愛の中へ
TTITLE9=Christmas Day
TTITLE10=言葉にできない
TTITLE11=君におくる歌
TTITLE12=YES-YES-YES
TTITLE13=メインストリートをつっ走れ
EXTD=
EXTT0=
EXTT1=
EXTT2=
EXTT3=
EXTT4=
EXTT5=
EXTT6=
EXTT7=
EXTT8=
EXTT9=
EXTT10=
EXTT11=
EXTT12=
EXTT13=
PLAYORDER=
